<?xml version="1.0" encoding="UTF-8"?>
<svg id="Layer_2" data-name="Layer 2" xmlns="http://www.w3.org/2000/svg" viewBox="0 0 2.4 2.7">
  <defs>
    <style>
      .cls-1 {
        fill: #4c4c4c;
      }
    </style>
  </defs>
  <g id="Nav_Bar" data-name="Nav Bar">
    <path class="cls-1" d="m.78,1.93c-.09,0-.17-.03-.23-.09-.06-.06-.09-.14-.09-.23s.03-.17.09-.23c.06-.06.14-.09.23-.09s.17.03.23.09c.06.06.09.14.09.23s-.03.17-.09.23c-.06.06-.14.09-.23.09Zm-.52.77c-.07,0-.13-.02-.18-.07-.05-.05-.07-.11-.07-.18V.55c0-.07.02-.13.07-.18.05-.05.11-.07.18-.07h.2v-.3h.22v.3h1.07v-.3h.21v.3h.2c.07,0,.13.02.18.07.05.05.07.11.07.18v1.89c0,.07-.02.13-.07.18s-.11.07-.18.07H.26Zm0-.21h1.89s.02,0,.03-.01c0,0,.01-.02.01-.03v-1.32H.21v1.32s0,.02.01.03c0,0,.02.01.03.01Zm-.04-1.58h1.98v-.35s0-.02-.01-.03c0,0-.02-.01-.03-.01H.26s-.02,0-.03.01c0,0-.01.02-.01.03v.35Z"/>
  </g>
</svg>