<?xml version="1.0" encoding="UTF-8"?>
<svg id="Layer_2" data-name="Layer 2" xmlns="http://www.w3.org/2000/svg" viewBox="0 0 2.4 2.27">
  <defs>
    <style>
      .cls-1 {
        fill: #4c4c4c;
      }
    </style>
  </defs>
  <g id="Nav_Bar" data-name="Nav Bar">
    <path class="cls-1" d="m.24,2.27c-.07,0-.12-.02-.17-.07-.05-.05-.07-.1-.07-.17V.24c0-.07.02-.12.07-.17.05-.05.1-.07.17-.07h1.78c.07,0,.12.02.17.07.05.05.07.1.07.17v.36h-.2V.24s0-.02-.01-.03-.02-.01-.03-.01H.24s-.02,0-.03.01-.01.02-.01.03v1.78s0,.02.01.03.02.01.03.01h1.78s.02,0,.03-.01.01-.02.01-.03v-.36h.2v.36c0,.07-.02.12-.07.17-.05.05-.1.07-.17.07H.24Zm1.07-.53c-.07,0-.12-.02-.17-.07-.05-.05-.07-.1-.07-.17v-.72c0-.07.02-.12.07-.17.05-.05.1-.07.17-.07h.85c.07,0,.12.02.17.07.05.05.07.1.07.17v.72c0,.07-.02.12-.07.17-.05.05-.1.07-.17.07h-.85Zm.85-.2s.02,0,.03-.01c0,0,.01-.02.01-.03v-.72s0-.02-.01-.03c0,0-.02-.01-.03-.01h-.85s-.02,0-.03.01c0,0-.01.02-.01.03v.72s0,.02.01.03c0,0,.02.01.03.01h.85Z"/>
  </g>
</svg>